<?xml version="1.0" standalone="no"?>
<!DOCTYPE svg PUBLIC "-//W3C//DTD SVG 20010904//EN"
 "http://www.w3.org/TR/2001/REC-SVG-20010904/DTD/svg10.dtd">
<svg version="1.0" xmlns="http://www.w3.org/2000/svg"
 width="6000.000000pt" height="4800.000000pt" viewBox="0 0 6000.000000 4800.000000"
 preserveAspectRatio="xMidYMid meet">

<g transform="translate(0.000000,4800.000000) scale(0.100000,-0.100000)"
fill="#000000" stroke="none">
<path d="M29307 37029 c-149 -36 -278 -186 -334 -391 -16 -59 -18 -216 -20
-2340 l-3 -2278 -1913 -1 c-1051 -1 -1931 -3 -1954 -4 -65 -5 -191 -43 -262
-78 -86 -42 -173 -124 -208 -195 l-28 -57 -3 -654 c-2 -589 -1 -659 14 -705
43 -130 166 -229 356 -288 l73 -23 1963 -3 1962 -2 1 -7258 c0 -3991 2 -7277
5 -7302 9 -79 44 -200 76 -263 19 -39 57 -88 103 -133 117 -116 60 -109 865
-109 805 0 748 -7 865 109 79 77 117 143 156 266 l24 75 3 7307 2 7308 1963 2
1962 3 75 23 c160 50 289 143 341 248 l24 49 0 680 0 680 -30 53 c-38 70 -125
149 -206 189 -71 35 -197 73 -262 78 -23 1 -903 3 -1954 4 l-1913 1 -3 2278
c-2 2123 -4 2281 -20 2340 -47 173 -149 313 -269 368 l-63 29 -675 2 c-373 1
-692 -3 -713 -8z"/>
<path d="M19560 23825 c-47 -7 -96 -16 -110 -19 -14 -2 -41 -8 -60 -12 -415
-81 -1271 -437 -1925 -799 -608 -336 -1382 -862 -2030 -1380 -447 -357 -722
-601 -1075 -954 -349 -349 -513 -539 -672 -776 -79 -118 -171 -295 -191 -364
-16 -58 -20 -181 -7 -227 23 -80 113 -147 218 -162 78 -12 332 -7 417 7 44 7
159 31 255 52 278 61 501 108 550 114 25 4 59 11 75 15 17 5 44 11 60 14 17 2
89 14 160 26 72 12 142 23 158 25 15 3 39 7 55 9 144 25 662 83 742 84 8 0
102 5 208 12 179 10 791 8 867 -4 17 -3 73 -7 125 -11 52 -3 111 -8 130 -10
19 -3 62 -7 94 -10 59 -5 272 -32 311 -39 11 -2 40 -7 65 -11 25 -4 52 -9 60
-10 8 -1 35 -6 60 -9 179 -27 622 -126 850 -189 30 -9 91 -25 135 -37 44 -11
118 -33 165 -47 47 -15 92 -28 100 -29 22 -5 501 -162 525 -173 11 -5 81 -30
155 -56 74 -26 149 -53 165 -59 17 -7 98 -39 180 -71 147 -58 430 -173 490
-200 17 -8 91 -41 165 -73 74 -33 175 -78 223 -101 49 -22 91 -41 94 -41 11 0
758 -374 898 -450 83 -45 187 -102 232 -126 45 -24 153 -85 240 -135 87 -50
177 -102 200 -115 74 -42 415 -248 543 -329 250 -156 521 -334 780 -513 786
-543 1494 -1101 2200 -1736 565 -508 1214 -1162 1710 -1726 254 -288 621 -730
736 -885 l29 -40 -30 20 c-480 310 -1198 745 -1740 1055 -1087 619 -2178 1145
-3130 1505 -455 173 -958 340 -1370 455 -82 23 -171 48 -196 56 -25 8 -54 16
-65 18 -10 2 -140 34 -289 71 -148 37 -283 69 -300 72 -16 2 -43 8 -60 13 -64
19 -682 138 -990 191 -109 18 -470 72 -601 89 -44 6 -90 12 -102 15 -11 2 -47
6 -79 10 -51 5 -158 18 -248 30 -16 3 -156 18 -310 35 -154 17 -294 32 -310
35 -17 2 -60 7 -95 10 -36 3 -81 8 -100 10 -19 2 -60 7 -90 10 -129 12 -168
15 -220 20 -30 3 -134 12 -230 20 -96 9 -204 18 -240 21 -36 2 -85 6 -110 9
-39 4 -261 21 -390 30 -72 5 -222 14 -415 25 -99 6 -211 12 -250 15 -38 2
-135 7 -215 11 -80 3 -165 7 -190 9 -354 23 -2092 27 -2560 7 -349 -15 -410
-19 -595 -32 -77 -5 -179 -12 -226 -15 -48 -3 -106 -7 -130 -9 -24 -3 -75 -7
-114 -10 -38 -4 -92 -8 -120 -11 -27 -2 -84 -7 -125 -10 -83 -7 -76 -6 -285
-29 -204 -23 -223 -25 -275 -32 -25 -3 -58 -7 -75 -9 -16 -2 -82 -11 -145 -19
-63 -8 -140 -18 -170 -22 -30 -3 -64 -8 -75 -9 -11 -2 -38 -6 -60 -10 -22 -3
-65 -10 -95 -15 -30 -5 -73 -12 -95 -15 -57 -8 -89 -13 -180 -30 -44 -8 -102
-17 -130 -21 -27 -3 -52 -8 -55 -9 -3 -2 -24 -6 -46 -9 -22 -4 -51 -9 -64 -12
-22 -4 -68 -13 -150 -28 -258 -48 -766 -167 -1075 -251 -277 -76 -299 -83
-330 -95 -16 -6 -32 -11 -35 -11 -10 0 -118 -32 -215 -64 -264 -89 -522 -177
-540 -185 -11 -5 -78 -30 -150 -56 -71 -25 -143 -52 -160 -59 -16 -7 -88 -31
-158 -54 -152 -48 -218 -53 -241 -18 -19 27 -14 92 13 168 22 66 131 326 178
429 19 41 43 95 53 120 10 25 32 75 48 110 17 36 43 94 59 130 95 210 419 867
538 1090 986 1842 2109 3277 3345 4273 424 341 827 612 1266 850 146 79 534
267 552 267 17 0 129 64 155 88 51 49 55 124 9 176 -25 28 -102 63 -170 79
-125 29 -383 12 -582 -38 -98 -24 -241 -66 -275 -80 -16 -7 -48 -18 -70 -25
-127 -40 -458 -194 -700 -325 -313 -170 -797 -497 -1190 -804 -768 -600 -1343
-1168 -1961 -1936 -479 -596 -1049 -1434 -1462 -2150 -19 -33 -44 -76 -55 -95
-66 -115 -270 -484 -361 -655 -97 -180 -456 -896 -456 -908 0 -2 -22 -51 -49
-108 -137 -291 -286 -644 -405 -959 -105 -278 -114 -310 -117 -400 -7 -244
174 -399 467 -401 114 0 154 5 294 36 152 34 585 185 855 297 68 28 82 34 145
59 30 12 69 27 85 34 17 7 120 47 230 90 110 42 214 83 230 90 58 25 490 183
535 196 25 7 50 16 55 19 14 10 472 160 665 219 146 44 287 84 525 151 79 22
509 128 630 155 44 10 105 24 135 31 44 10 282 59 485 99 17 3 82 15 145 25
63 11 138 25 165 30 66 14 68 14 530 85 52 8 568 73 625 79 30 3 143 14 250
25 107 11 236 22 285 26 50 4 110 8 135 11 54 5 298 21 430 29 52 3 176 10
275 16 99 6 534 13 968 16 1003 7 1600 -8 2447 -62 324 -21 367 -24 430 -30
30 -2 91 -7 135 -10 44 -3 125 -10 180 -16 55 -5 127 -12 160 -14 33 -3 78 -7
100 -10 22 -3 67 -8 100 -10 79 -7 507 -55 531 -59 10 -2 48 -7 84 -11 36 -4
191 -25 345 -47 154 -21 296 -41 315 -44 46 -6 472 -77 625 -104 241 -42 799
-157 945 -195 8 -2 47 -10 85 -19 75 -16 227 -53 450 -111 258 -66 289 -74
495 -135 113 -33 214 -62 225 -65 11 -3 31 -9 45 -14 14 -5 72 -24 130 -41
152 -46 344 -108 430 -140 41 -15 134 -49 205 -75 213 -78 565 -220 732 -296
23 -10 44 -19 47 -19 5 0 363 -161 556 -251 308 -142 1214 -605 1555 -794 22
-12 72 -39 110 -60 39 -21 105 -58 148 -82 42 -24 99 -55 125 -70 273 -151
834 -481 1142 -671 346 -214 521 -332 370 -250 -36 20 -101 55 -145 78 -44 24
-127 69 -185 100 -124 68 -915 460 -1045 518 -49 22 -128 58 -175 80 -146 69
-605 265 -855 366 -132 54 -249 101 -260 106 -50 23 -554 207 -775 283 -263
91 -654 217 -875 283 -33 10 -62 18 -65 19 -3 1 -18 5 -35 9 -16 5 -84 24
-150 43 -66 19 -127 36 -136 38 -10 2 -79 20 -155 40 -142 38 -519 132 -564
141 -14 3 -104 23 -200 44 -190 42 -611 127 -700 142 -64 10 -82 13 -128 22
-29 6 -280 45 -382 60 -101 15 -250 36 -285 40 -176 22 -380 46 -430 51 -33 3
-73 8 -90 10 -16 3 -59 7 -95 10 -111 8 -442 35 -505 40 -229 20 -1538 29
-1780 12 -60 -4 -146 -10 -190 -13 -124 -8 -187 -13 -365 -29 -237 -22 -261
-24 -300 -29 -19 -3 -75 -10 -125 -16 -109 -13 -150 -19 -190 -25 -16 -3 -46
-7 -65 -9 -30 -4 -197 -29 -270 -42 -138 -23 -328 -57 -380 -69 -36 -7 -83
-16 -105 -20 -22 -3 -68 -12 -102 -20 -35 -8 -78 -17 -96 -20 -17 -3 -40 -8
-49 -11 -9 -3 -25 -7 -35 -9 -98 -20 -547 -138 -693 -182 -102 -30 -198 -59
-215 -63 -42 -11 -336 -109 -360 -120 -11 -5 -87 -34 -170 -64 -213 -78 -433
-167 -583 -237 -35 -16 -65 -29 -68 -29 -3 0 -84 -38 -181 -85 -97 -47 -178
-85 -180 -85 -4 0 -185 -97 -358 -193 -244 -135 -586 -352 -865 -551 -95 -68
-611 -428 -787 -550 -40 -27 -75 -48 -77 -45 -6 6 203 421 306 610 127 230
136 246 196 349 131 226 274 459 403 656 93 141 139 219 139 238 0 63 -59 126
-118 126 -31 0 -44 -9 -92 -57 -164 -170 -556 -688 -820 -1083 -395 -590 -595
-981 -705 -1375 -26 -92 -32 -245 -11 -298 21 -55 69 -102 125 -122 90 -32
120 -22 401 131 471 256 1194 627 1510 774 74 34 172 80 218 101 46 22 85 39
88 39 5 0 55 21 131 56 68 31 497 178 548 188 6 1 48 14 95 29 106 32 467 129
580 156 335 77 587 131 725 155 17 3 53 9 80 14 346 64 573 99 970 152 513 68
1094 123 1520 145 50 3 117 7 150 10 33 3 116 7 185 10 69 3 170 8 226 10 906
42 2317 15 3159 -60 28 -2 88 -7 135 -10 47 -3 101 -7 120 -10 19 -2 67 -6
105 -10 78 -7 149 -14 210 -20 22 -2 72 -7 110 -10 39 -3 106 -10 150 -16 44
-5 103 -11 130 -14 28 -3 70 -8 95 -11 25 -3 59 -8 75 -10 17 -2 91 -11 165
-19 74 -8 146 -18 159 -21 13 -3 46 -7 75 -10 28 -3 112 -14 186 -25 74 -11
180 -27 235 -35 55 -8 138 -21 185 -29 47 -8 155 -26 240 -40 85 -14 189 -33
230 -41 41 -8 91 -18 112 -20 34 -5 606 -120 638 -128 18 -5 158 -35 217 -47
23 -4 90 -20 150 -35 59 -14 122 -28 138 -31 17 -3 38 -9 48 -14 9 -5 17 -8
17 -5 0 2 51 -9 113 -26 61 -16 123 -31 137 -34 14 -3 32 -7 40 -10 8 -3 26
-8 39 -10 13 -3 72 -18 130 -34 388 -106 411 -113 651 -186 137 -42 822 -271
865 -289 17 -7 129 -50 250 -95 121 -45 224 -86 230 -91 5 -5 15 -9 22 -9 7 0
32 -9 56 -19 57 -27 640 -261 747 -300 47 -18 94 -36 105 -40 48 -22 400 -141
430 -147 6 -1 35 -9 65 -19 171 -52 266 -70 380 -70 114 0 208 17 379 70 30 9
62 18 70 20 32 6 375 124 426 146 11 4 79 30 151 58 151 57 639 253 701 282
24 10 49 19 56 19 7 0 17 4 22 9 10 9 118 51 340 133 61 22 124 46 140 53 42
19 763 259 865 289 47 14 139 41 205 61 101 30 448 125 550 151 17 4 35 8 40
10 14 4 286 74 310 79 11 3 67 16 125 30 106 26 221 52 360 81 41 9 82 18 90
20 28 7 599 122 632 127 18 3 94 17 168 30 74 14 151 27 170 30 19 3 105 18
190 32 85 14 198 32 250 40 52 7 156 23 230 34 74 11 158 22 186 25 29 3 62 7
75 10 13 3 85 13 159 21 74 8 149 17 165 19 17 2 50 7 75 10 25 3 68 8 95 11
28 3 109 12 180 20 72 7 164 17 205 20 41 4 86 8 100 10 14 1 63 6 110 10 47
3 96 8 110 10 14 2 66 7 115 10 50 3 113 8 140 10 94 8 320 24 420 30 55 3
134 8 175 10 686 44 1846 53 2570 20 58 -3 157 -7 220 -10 63 -3 147 -7 185
-10 39 -3 106 -8 150 -10 461 -25 1001 -76 1520 -145 392 -52 700 -100 960
-150 22 -5 69 -13 105 -19 133 -23 369 -74 710 -152 115 -27 476 -124 580
-156 47 -15 90 -27 95 -29 55 -11 481 -157 545 -187 19 -9 63 -27 98 -42 35
-14 95 -41 135 -59 40 -18 133 -62 207 -96 173 -80 659 -324 905 -453 105 -54
246 -129 315 -165 69 -36 215 -114 325 -175 224 -122 273 -138 350 -117 102
29 155 106 155 230 0 353 -331 1018 -916 1841 -215 302 -513 684 -626 803 -56
58 -68 66 -100 66 -55 0 -105 -47 -114 -106 -6 -44 -5 -46 126 -247 73 -111
143 -218 156 -237 68 -104 329 -553 445 -765 110 -201 320 -618 314 -624 -2
-2 -46 25 -97 60 -169 115 -541 374 -688 479 -323 231 -686 465 -945 607 -177
98 -354 193 -358 193 -2 0 -83 38 -180 85 -97 47 -178 85 -181 85 -3 0 -33 13
-68 29 -138 65 -598 249 -688 276 -14 4 -38 13 -55 20 -32 15 -320 112 -370
125 -16 5 -59 17 -95 28 -185 57 -328 96 -550 152 -135 34 -253 63 -263 65
-10 2 -26 6 -35 9 -9 3 -32 8 -49 11 -18 3 -61 12 -96 20 -34 8 -80 17 -102
20 -22 4 -69 13 -105 20 -52 12 -242 46 -380 69 -87 15 -241 38 -275 42 -22 2
-49 6 -60 9 -11 2 -42 7 -70 10 -46 6 -166 21 -240 30 -89 12 -496 48 -670 59
-44 3 -129 9 -190 13 -234 16 -1653 7 -1765 -11 -14 -2 -77 -8 -140 -11 -132
-9 -148 -10 -250 -19 -41 -4 -97 -9 -125 -11 -92 -8 -341 -36 -615 -70 -98
-12 -629 -92 -670 -100 -28 -6 -51 -10 -130 -24 -30 -5 -80 -14 -110 -20 -30
-6 -66 -12 -80 -15 -334 -63 -903 -192 -1274 -291 -76 -20 -145 -38 -155 -40
-9 -2 -70 -19 -136 -38 -66 -19 -133 -38 -150 -42 -292 -75 -1452 -470 -1750
-596 -11 -5 -78 -31 -150 -59 -71 -28 -139 -55 -150 -60 -11 -5 -105 -45 -210
-89 -196 -81 -491 -210 -605 -263 -36 -17 -94 -44 -130 -60 -201 -91 -904
-438 -1115 -551 -124 -66 -234 -126 -302 -164 -35 -19 -63 -33 -63 -30 0 24
965 609 1500 909 212 119 283 159 335 187 33 18 137 75 230 126 274 150 435
233 885 458 391 196 547 271 720 350 36 16 99 45 140 64 41 19 122 55 180 80
58 24 119 51 135 58 187 83 518 216 720 290 72 26 164 60 205 75 86 32 278 94
430 140 58 17 116 36 130 41 14 5 34 11 45 14 11 3 106 30 210 60 105 31 233
67 285 81 208 56 521 135 630 160 63 14 122 28 130 30 193 46 600 130 865 179
77 14 163 30 190 35 44 8 140 24 215 35 14 2 79 13 145 24 66 11 136 23 155
25 19 3 161 23 315 44 154 22 307 43 340 47 33 3 71 8 85 10 44 7 462 54 535
60 39 3 84 7 100 10 17 2 59 7 95 9 36 3 110 10 165 15 55 6 136 13 180 16 44
3 105 8 135 10 63 6 108 9 430 30 333 21 807 44 880 44 8 -1 179 5 380 11 420
14 1867 8 2155 -9 323 -19 368 -22 515 -31 80 -6 165 -12 190 -14 25 -3 86 -7
135 -11 118 -9 521 -48 614 -61 24 -3 65 -8 90 -10 45 -5 397 -50 456 -59 132
-20 426 -66 450 -70 17 -3 66 -12 110 -20 44 -8 96 -17 115 -20 97 -15 562
-108 650 -129 30 -7 91 -21 135 -31 121 -27 551 -133 630 -155 86 -24 424
-122 560 -162 310 -91 984 -329 1423 -502 106 -42 195 -76 197 -76 3 0 24 -8
48 -19 23 -10 67 -28 97 -40 65 -26 79 -32 145 -59 156 -65 569 -215 730 -265
51 -16 208 -50 280 -62 72 -11 235 -5 298 11 157 40 251 125 294 262 16 51 18
199 3 235 -5 12 -32 87 -60 167 -28 80 -57 159 -64 175 -7 17 -23 57 -36 90
-30 79 -165 405 -197 475 -207 461 -492 1051 -633 1308 -26 48 -93 173 -150
277 -134 246 -143 262 -208 375 -30 52 -71 122 -89 155 -19 33 -38 65 -43 70
-4 6 -19 30 -32 55 -14 25 -61 104 -105 175 -44 72 -92 152 -109 178 -165 271
-510 786 -737 1096 -326 450 -691 896 -1028 1261 -743 804 -1790 1633 -2635
2088 -525 282 -980 431 -1341 438 -156 3 -244 -13 -324 -57 -121 -68 -109
-184 27 -259 28 -15 61 -31 75 -35 69 -22 479 -224 664 -328 1423 -795 2739
-2142 3878 -3969 111 -178 312 -516 374 -628 17 -30 64 -116 106 -190 183
-329 490 -936 661 -1310 65 -140 127 -275 138 -300 63 -137 204 -477 229 -553
33 -101 36 -133 13 -165 -24 -34 -90 -29 -241 19 -70 23 -141 47 -158 54 -16
7 -88 34 -160 59 -71 26 -139 51 -150 56 -87 36 -733 250 -755 249 -3 0 -18 5
-35 11 -31 12 -53 19 -330 95 -309 84 -817 203 -1075 251 -84 15 -128 24 -150
29 -28 6 -119 22 -165 29 -16 3 -73 12 -125 21 -136 23 -141 24 -185 30 -22 3
-65 10 -95 15 -68 12 -192 30 -245 36 -22 3 -92 12 -155 20 -63 8 -128 17
-145 19 -16 2 -50 6 -75 9 -62 8 -103 13 -275 31 -82 8 -166 17 -185 20 -37 4
-128 12 -220 20 -83 7 -190 16 -239 21 -24 2 -82 6 -130 9 -47 3 -149 10 -226
15 -185 13 -246 17 -595 32 -468 20 -2206 16 -2560 -7 -25 -2 -110 -6 -190 -9
-80 -4 -176 -9 -215 -11 -38 -3 -151 -9 -250 -15 -193 -11 -343 -20 -415 -25
-129 -9 -351 -26 -390 -30 -25 -3 -74 -7 -110 -9 -55 -4 -247 -21 -470 -41
-30 -3 -77 -7 -105 -10 -77 -6 -166 -15 -205 -20 -19 -2 -64 -7 -100 -10 -35
-3 -78 -8 -95 -10 -16 -3 -156 -18 -310 -35 -154 -17 -293 -32 -310 -35 -90
-12 -197 -25 -248 -30 -32 -4 -68 -8 -79 -10 -12 -3 -58 -9 -102 -15 -95 -12
-94 -12 -351 -50 -110 -17 -225 -34 -255 -40 -30 -5 -134 -24 -230 -41 -96
-17 -251 -46 -345 -65 -93 -18 -181 -36 -195 -38 -30 -5 -180 -38 -300 -65
-69 -15 -412 -98 -482 -116 -10 -3 -26 -7 -35 -9 -10 -3 -43 -12 -73 -20 -30
-8 -95 -26 -145 -40 -781 -213 -1770 -576 -2560 -941 -27 -13 -90 -42 -140
-65 -312 -143 -905 -440 -1190 -595 -33 -18 -95 -51 -139 -74 -64 -35 -380
-210 -551 -306 -370 -208 -1270 -751 -1625 -981 -146 -94 -158 -102 -144 -83
650 849 1620 1883 2519 2684 790 704 1694 1401 2490 1920 66 43 163 106 215
140 178 116 627 392 761 468 24 13 87 49 139 79 447 258 1136 615 1520 786 25
11 86 39 135 62 147 68 537 232 725 304 96 38 184 72 195 77 25 11 169 63 250
91 33 11 69 24 80 29 23 10 502 168 525 173 8 1 53 14 100 29 47 14 121 36
165 47 44 12 105 28 135 37 228 63 671 162 850 189 25 3 52 8 60 9 8 1 35 6
60 10 25 4 54 9 65 11 39 7 252 34 311 39 32 3 75 7 94 10 19 2 78 7 130 10
52 4 109 8 125 11 76 12 688 14 867 4 106 -7 200 -12 208 -12 79 -1 611 -60
735 -83 11 -2 40 -6 65 -9 25 -4 52 -9 60 -11 8 -2 35 -7 60 -9 25 -3 70 -10
100 -16 30 -6 71 -13 90 -16 19 -3 49 -9 65 -14 17 -4 50 -11 75 -15 49 -6
272 -53 550 -114 96 -21 211 -45 255 -52 77 -14 378 -19 420 -8 110 30 169 66
199 124 17 33 21 57 20 135 -1 119 -3 129 -68 264 -137 283 -410 621 -857
1061 -748 735 -1748 1500 -2761 2111 -544 328 -1272 671 -1803 849 -156 52
-339 105 -420 120 -22 5 -47 10 -55 12 -159 37 -455 40 -552 6 -107 -38 -181
-104 -198 -177 -16 -71 34 -108 310 -231 58 -26 129 -58 158 -71 29 -13 54
-24 57 -24 4 0 30 -12 375 -175 302 -143 967 -491 1112 -582 21 -12 40 -23 42
-23 2 0 60 -32 128 -71 67 -39 143 -83 168 -97 164 -92 558 -336 695 -430 600
-412 862 -649 1611 -1462 154 -168 359 -388 456 -490 97 -102 174 -187 173
-188 -2 -2 -43 1 -92 7 -178 21 -199 24 -328 35 -33 3 -150 15 -260 25 -191
19 -250 24 -430 36 -44 3 -105 8 -135 12 -30 3 -226 8 -435 12 -349 5 -493 1
-775 -22 -81 -7 -429 -51 -475 -61 -11 -2 -56 -9 -100 -16 -44 -7 -89 -14
-100 -16 -18 -4 -142 -25 -220 -38 -124 -20 -224 -38 -245 -42 -14 -3 -61 -11
-105 -19 -240 -42 -512 -99 -715 -150 -52 -13 -106 -26 -120 -29 -45 -9 -452
-123 -605 -171 -198 -61 -526 -171 -700 -236 -77 -28 -156 -57 -175 -64 -66
-25 -365 -147 -525 -215 -1246 -529 -2532 -1276 -3795 -2204 -1677 -1231
-3304 -2808 -4261 -4131 -187 -258 -393 -580 -460 -719 -13 -25 -25 -46 -28
-46 -4 0 -30 45 -60 100 -287 531 -888 1305 -1621 2085 -1242 1322 -2788 2599
-4310 3559 -85 54 -171 108 -190 121 -78 50 -403 243 -564 334 -776 442 -1416
752 -2191 1061 -225 90 -275 109 -570 212 -279 97 -921 290 -1045 314 -14 3
-68 16 -120 29 -203 51 -475 108 -715 150 -86 15 -120 21 -175 32 -19 3 -39 7
-45 7 -5 1 -23 5 -40 8 -16 4 -50 10 -75 13 -42 6 -190 30 -235 39 -11 2 -56
9 -100 16 -44 7 -89 14 -100 16 -46 10 -394 54 -475 61 -282 23 -426 27 -775
22 -209 -4 -405 -9 -435 -12 -30 -4 -91 -9 -135 -12 -180 -12 -239 -17 -430
-36 -110 -10 -229 -22 -265 -25 -36 -3 -76 -7 -90 -9 -14 -2 -54 -6 -90 -10
-36 -3 -81 -8 -100 -10 -19 -3 -59 -7 -89 -10 l-53 -6 112 118 c62 65 298 318
524 563 656 708 894 935 1301 1241 319 241 843 569 1365 856 30 16 120 66 200
110 137 75 268 145 560 295 145 75 673 328 685 328 2 0 28 11 57 24 29 14 126
58 214 99 204 93 250 120 270 158 38 75 -58 188 -202 235 -68 22 -321 28 -434
9z"/>
</g>
</svg>
